PathFileType	4	(X/Y/Z)	/Users/itak/Documents/Research/Walk-IL/dataset/trc/00350_00011.trc
DataRate	CameraRate	NumFrames	NumMarkers	Units	OrigDataRate	OrigDataStartFrame	OrigNumFrames
100.000000	100.000000	4	53	mm	100.000000	547	730
Frame#	Time	RPSI			LPSI			STRN			T10			C7			CLAV			RBAK			LBAK			LSHO			LUPA			LAEL			LAOL			LWTS			LWPS			LFRA			LIFD			LHPS			LHTS			RSHO			RUPA			RAEL			RAOL			RWTS			RWPS			RFRA			RIFD			RHTS			RHPS			RBHD			LFHD			RFHD			LBHD			LHIP			RHIP			RASI			LASI			LKNE			LTHI			LANK			LTIP			LTOE			LMT1			LMT5			LHEE			RKNE			RANK			RTIP			RTOE			RMT1			RMT5			RHEE			L3			RTHI			
		X1	Y1	Z1	X2	Y2	Z2	X3	Y3	Z3	X4	Y4	Z4	X5	Y5	Z5	X6	Y6	Z6	X7	Y7	Z7	X8	Y8	Z8	X9	Y9	Z9	X10	Y10	Z10	X11	Y11	Z11	X12	Y12	Z12	X13	Y13	Z13	X14	Y14	Z14	X15	Y15	Z15	X16	Y16	Z16	X17	Y17	Z17	X18	Y18	Z18	X19	Y19	Z19	X20	Y20	Z20	X21	Y21	Z21	X22	Y22	Z22	X23	Y23	Z23	X24	Y24	Z24	X25	Y25	Z25	X26	Y26	Z26	X27	Y27	Z27	X28	Y28	Z28	X29	Y29	Z29	X30	Y30	Z30	X31	Y31	Z31	X32	Y32	Z32	X33	Y33	Z33	X34	Y34	Z34	X35	Y35	Z35	X36	Y36	Z36	X37	Y37	Z37	X38	Y38	Z38	X39	Y39	Z39	X40	Y40	Z40	X41	Y41	Z41	X42	Y42	Z42	X43	Y43	Z43	X44	Y44	Z44	X45	Y45	Z45	X46	Y46	Z46	X47	Y47	Z47	X48	Y48	Z48	X49	Y49	Z49	X50	Y50	Z50	X51	Y51	Z51	X52	Y52	Z52	X53	Y53	Z53	

548	5.47	460.6988830566406	965.2236328125	698.9779663085938	518.5783081054688	967.992431640625	816.3662109375	281.8652648925781	1211.53076171875	862.328369140625	497.3013305664062	1152.980834960938	751.7355346679688	459.3229064941406	1399.248168945312	790.6837158203125	319.3883972167969	1338.494384765625	849.9429931640625	479.1762390136719	1263.495483398438	701.7073974609375	514.3472290039062	1361.646728515625	874.984375	462.2548522949219	1373.302978515625	963.3929443359375	512.1815795898438	1253.6962890625	1010.439697265625	518.4923095703125	1050.79638671875	1025.527709960938	538.7356567382812	1038.719482421875	944.1849975585938	434.189453125	802.4271240234375	1044.507080078125	499.4915466308594	796.0465087890625	1067.455444335938	518.9532470703125	946.257080078125	1040.068359375	437.0993347167969	642.3501586914062	1042.345581054688	503.2164916992188	725.89404296875	1060.808715820312	438.4926452636719	723.9343872070312	1063.8193359375	341.3769226074219	1388.73779296875	666.961669921875	324.9294128417969	1327.816528320312	601.3547973632812	286.3426818847656	1064.933349609375	548.976806640625	354.4871215820312	1040.258178710938	609.7312622070312	149.9750213623047	927.3812866210938	704.0033569335938	131.2596435546875	890.0236206054688	639.2057495117188	242.3571929931641	1013.642639160156	565.0546875	65.07656097412109	790.1213989257812	766.1854858398438	76.51777648925781	859.3452758789062	740.2100830078125	85.14109039306641	828.7932739257812	678.1776733398438	354.3356018066406	1608.8935546875	747.2229614257812	238.7346343994141	1582.054077148438	918.4285278320312	211.2208862304688	1582.884887695312	820.6349487304688	418.4452514648438	1609.653076171875	877.0802001953125	483.0308532714844	919.8382568359375	950.4443359375	340.5443725585938	907.472900390625	639.6361694335938	262.9474792480469	939.4140014648438	721.3212280273438	349.1443481445312	945.8359985351562	945.6127319335938	317.5385131835938	502.4309692382812	1061.627807617188	357.6436767578125	624.8464965820312	1044.187866210938	520.7105712890625	116.0378875732422	985.5894165039062	421.8399658203125	301.7574157714844	1039.054077148438	333.8714904785156	48.83631896972656	1062.19970703125	361.1513671875	52.18957138061523	986.1754150390625	437.6262512207031	73.27995300292969	1068.951782226562	505.498291015625	115.9264907836914	911.3104248046875	306.1805419921875	444.698974609375	744.4247436523438	391.8213195800781	48.53246688842773	797.8941040039062	308.02001953125	327.8770751953125	778.42333984375	233.41845703125	43.23969650268555	918.3582763671875	301.11474609375	34.64202499389648	935.146240234375	290.2240600585938	37.57833099365234	818.3262329101562	454.9274291992188	45.24717712402344	823.0713500976562	493.7326049804688	1034.411010742188	749.6260986328125	269.867919921875	700.7373046875	693.9210815429688	
549	5.48	458.2571716308594	965.7828369140625	703.53271484375	514.5037841796875	968.6382446289062	821.6719360351562	277.1699829101562	1211.848876953125	864.5667114257812	494.1913146972656	1153.5458984375	756.0177612304688	455.2112121582031	1399.626098632812	794.8094482421875	314.7715454101562	1338.78271484375	852.6016845703125	475.9800109863281	1263.875244140625	706.0752563476562	509.4084777832031	1362.051879882812	879.602294921875	456.4991760253906	1373.618408203125	967.4597778320312	506.3558959960938	1254.154418945312	1014.756958007812	513.136962890625	1051.214477539062	1029.67919921875	533.970703125	1039.301391601562	948.4519653320312	429.4223937988281	802.5999755859375	1047.68359375	494.5734558105469	796.3649291992188	1071.116455078125	513.7718505859375	946.6898803710938	1044.078735351562	432.9065551757812	642.5761108398438	1045.60302734375	498.52880859375	726.243896484375	1064.47802734375	433.7418518066406	724.072509765625	1066.974243164062	338.4981994628906	1389.12744140625	669.8262329101562	322.6638488769531	1328.146484375	604.1170043945312	284.1439819335938	1065.293090820312	551.4398803710938	351.4106140136719	1040.231079101562	613.153076171875	147.4550018310547	927.9728393554688	706.4431762695312	128.7497253417969	890.7620849609375	641.5869140625	240.203369140625	1014.04052734375	567.49169921875	62.41033172607422	790.6205444335938	768.3007202148438	73.97498321533203	859.875	742.554443359375	82.50302886962891	829.5321044921875	680.4190063476562	350.4173278808594	1609.321533203125	750.549560546875	233.4408569335938	1582.234497070312	920.759521484375	206.6780548095703	1583.143432617188	822.7177124023438	413.4593505859375	1610.018310546875	880.9008178710938	476.8166809082031	920.530517578125	955.360107421875	339.2228088378906	907.892333984375	642.3462524414062	260.3560180664062	939.686279296875	722.8050537109375	343.1821594238281	946.30615234375	948.31689453125	310.322509765625	502.5181579589844	1064.145263671875	350.9748840332031	625.4251708984375	1047.18359375	500.343505859375	107.2701797485352	1001.849060058594	408.0509948730469	298.1317749023438	1048.37939453125	308.8577880859375	50.60860443115234	1075.249145507812	338.2332153320312	50.59976959228516	999.9351196289062	413.3648986816406	70.66408538818359	1084.153442382812	487.1527404785156	105.7817687988281	927.3068237304688	305.2821655273438	444.8336181640625	744.9296264648438	391.8146667480469	48.4975471496582	797.8630981445312	307.3653259277344	327.7703247070312	778.7159423828125	233.3541564941406	43.25160980224609	918.2666015625	300.94140625	34.79423141479492	935.0460815429688	290.13037109375	37.44919586181641	818.2498779296875	455.0094299316406	45.44931411743164	822.8894653320312	490.7562866210938	1034.919067382812	754.25830078125	268.6057434082031	700.9444580078125	695.2666015625	
550	5.49	455.7740783691406	966.3186645507812	708.0936279296875	510.3459167480469	969.2642822265625	826.9695434570312	272.438720703125	1212.133911132812	866.8075561523438	491.0115356445312	1154.0625	760.31787109375	451.0750732421875	1399.970947265625	798.9382934570312	310.1168823242188	1339.038330078125	855.2555541992188	472.7309875488281	1264.226928710938	710.4158935546875	504.4328308105469	1362.434326171875	884.2224731445312	450.6905822753906	1373.929443359375	971.4944458007812	500.4963684082031	1254.61669921875	1019.052856445312	507.7260131835938	1051.64892578125	1033.864868164062	529.1409301757812	1039.896728515625	952.7610473632812	424.4669799804688	802.8460693359375	1050.95068359375	489.4701538085938	796.7057495117188	1074.879760742188	508.4909057617188	947.1351928710938	1048.153686523438	428.4426574707031	642.8028564453125	1048.931762695312	493.6354675292969	726.6350708007812	1068.2880859375	428.7906188964844	724.3015747070312	1070.255249023438	335.6036682128906	1389.485229492188	672.7001342773438	320.3869323730469	1328.442016601562	606.9064331054688	282.0283508300781	1065.614501953125	553.9225463867188	348.7777099609375	1040.473388671875	616.2052612304688	145.2024230957031	928.1817016601562	708.8165893554688	126.4712600708008	891.2219848632812	643.8372802734375	238.1761779785156	1014.340881347656	569.9248046875	60.16590881347656	790.603271484375	770.1768798828125	71.77324676513672	859.906494140625	744.7660522460938	80.19487762451172	829.8870849609375	682.46630859375	346.525146484375	1609.699584960938	753.8554077148438	228.1679077148438	1582.420166015625	923.0502319335938	202.1685333251953	1583.398681640625	824.7927856445312	408.4811401367188	1610.325561523438	884.6851196289062	470.621337890625	921.1719970703125	960.189208984375	337.8749694824219	908.260009765625	645.0840454101562	257.8199462890625	939.8837890625	724.3311767578125	337.1763000488281	946.6793823242188	950.9783935546875	303.5724182128906	502.2142028808594	1066.461547851562	344.6999206542969	625.7589111328125	1049.965576171875	479.3502807617188	98.90433502197266	1017.815856933594	394.1802978515625	294.5690307617188	1057.436767578125	283.5998840332031	52.66023254394531	1086.934814453125	315.0891418457031	49.48358535766602	1012.547119140625	388.6091918945312	68.28883361816406	1098.446411132812	468.2637023925781	96.10906219482422	943.0888671875	304.3098449707031	444.9374694824219	745.5012817382812	391.8153381347656	48.47101211547852	797.84326171875	306.7022705078125	327.667236328125	779.0838623046875	233.300048828125	43.26988983154297	918.1800537109375	300.7958679199219	34.9343147277832	934.9415893554688	290.0612487792969	37.33158493041992	818.1641845703125	455.0809020996094	45.67066955566406	822.7012329101562	487.6486206054688	1035.39697265625	758.981201171875	267.3013000488281	701.1112060546875	696.6179809570312	
551	5.5	453.2323913574219	966.8207397460938	712.6453857421875	506.093994140625	969.8589477539062	832.2490844726562	267.6702880859375	1212.371215820312	869.04248046875	487.7374572753906	1154.511962890625	764.6594848632812	446.9106140136719	1400.275634765625	803.0703125	305.4190063476562	1339.257568359375	857.9041137695312	469.4510498046875	1264.552001953125	714.7196655273438	499.4131469726562	1362.780029296875	888.8511962890625	444.8230895996094	1374.226684570312	975.50537109375	494.5813598632812	1255.06689453125	1023.358093261719	502.2511291503906	1052.082763671875	1038.08447265625	524.244140625	1040.486206054688	957.1212158203125	419.3236694335938	803.1395263671875	1054.313842773438	484.1847534179688	797.0520629882812	1078.737548828125	503.1094665527344	947.573974609375	1052.2939453125	423.70849609375	643.0206909179688	1052.323364257812	488.5321350097656	727.0484619140625	1072.2265625	423.6546020507812	724.5980834960938	1073.675170898438	332.6994323730469	1389.80126953125	675.590576171875	318.1059875488281	1328.698120117188	609.7222290039062	279.9979858398438	1065.891967773438	556.4215698242188	346.7045288085938	1041.0498046875	618.7606201171875	143.2194213867188	928.0206909179688	711.1328735351562	124.4075469970703	891.4120483398438	645.9681396484375	236.2524871826172	1014.539855957031	572.3467407226562	58.33189392089844	790.08642578125	771.8373413085938	69.90695190429688	859.462890625	746.8594360351562	78.20021057128906	829.869384765625	684.3349609375	342.6614379882812	1610.021118164062	757.1428833007812	222.9197845458984	1582.601196289062	925.3162841796875	197.7015686035156	1583.65087890625	826.8677368164062	403.5152587890625	1610.560180664062	888.4419555664062	464.4476623535156	921.7432250976562	964.9264526367188	336.47900390625	908.5773315429688	647.8488159179688	255.2991027832031	940.0006103515625	725.9052734375	331.1434326171875	946.9425659179688	953.6110229492188	297.2678527832031	501.5314025878906	1068.629760742188	338.8145446777344	625.8297119140625	1052.548461914062	457.8006286621094	91.07484436035156	1033.394409179688	380.2537841796875	291.1570739746094	1066.192749023438	258.2377319335938	55.0427131652832	1097.293701171875	291.8580017089844	48.86931228637695	1024.01806640625	363.4751586914062	66.27729797363281	1111.8037109375	448.9088439941406	87.03940582275391	958.5407104492188	303.2763977050781	444.9994506835938	746.148681640625	391.8227844238281	48.45378112792969	797.8373413085938	306.0289611816406	327.5771179199219	779.5267944335938	233.2587432861328	43.29201889038086	918.0928344726562	300.7020874023438	35.04602432250977	934.8331909179688	290.0222473144531	37.23033142089844	818.069091796875	455.1307678222656	45.87845230102539	822.5400390625	484.4062805175781	1035.831787109375	763.7686767578125	265.947998046875	701.2337646484375	697.982177734375	
